<svg width="66" height="46" viewBox="0 0 66 46" fill="none" xmlns="http://www.w3.org/2000/svg">
<path d="M56.9354 0.000525178H17.9004C14.7324 0.00443118 11.791 1.65282 10.1348 4.35602L1.0137 19.387C-0.3379 21.6058 -0.3379 24.3948 1.0137 26.6136L10.1309 41.6406H10.1348C11.791 44.3437 14.7286 45.9961 17.9004 46H56.9354C61.9237 46.0117 65.9784 41.9883 66.0018 37V9.00003C65.9784 4.01173 61.9237 -0.0111748 56.9354 0.000525178ZM60.0018 37.0005C59.9823 38.6763 58.6112 40.0161 56.9354 40.0005H17.9004C16.8262 40.0005 15.8262 39.4458 15.2637 38.5317L6.1426 23.5007C5.9551 23.1921 5.9551 22.8093 6.1426 22.5007L15.2637 7.46973C15.8301 6.55567 16.8262 6.00093 17.9004 6.00093H56.9354C58.6112 5.9853 59.9823 7.32513 60.0018 9.00093V37.0005Z" fill="#1A1C58"/>
<path d="M47.9464 12.8914C47.3839 12.325 46.6261 12.0047 45.8292 12.0008C45.0323 11.9969 44.2667 12.3094 43.7042 12.868L37.7237 18.7821L31.7432 12.868C30.5635 11.7039 28.6651 11.7118 27.501 12.8914C26.333 14.0711 26.3448 15.9695 27.5245 17.1336L33.4542 23.0008L27.5206 28.868H27.5245C26.3448 30.0321 26.3331 31.9305 27.501 33.1102C28.6651 34.2899 30.5635 34.2977 31.7432 33.1336L37.7237 27.2195L43.7042 33.1336C44.88 34.2977 46.7784 34.2898 47.9464 33.1102C49.1105 31.9305 49.0987 30.0321 47.923 28.868L41.9894 23.0008L47.923 17.1336C49.0988 15.9695 49.1105 14.0711 47.9464 12.8914Z" fill="#1A1C58"/>
</svg>
