<svg width="74" height="79" viewBox="0 0 74 79" fill="none" xmlns="http://www.w3.org/2000/svg">
<path d="M16.1461 31.8175L6.63612 43.6725L16.5931 49.5515V50.4055L8.65212 54.0095L3.84912 67.6385H26.3001C27.9041 67.6385 29.2061 66.3375 29.2061 64.7325V51.6995C28.3191 51.1315 27.6631 50.2655 27.3601 49.2585C26.6671 46.9425 27.9811 44.4985 30.2991 43.8055C32.6171 43.1105 35.0591 44.4225 35.7541 46.7435C36.4511 49.0595 35.1351 51.5055 32.8161 52.1985V69.4425C32.8161 71.0475 31.5151 72.3485 29.9101 72.3485H27.6401L30.1261 78.2315L51.6751 69.1205L44.9951 53.3255C50.6551 45.1495 48.6101 33.9325 40.4311 28.2765C32.6621 22.9015 22.0601 24.4485 16.1461 31.8175Z" fill="#1A1C58"/>
<path d="M67.533 21.5983C73.133 31.3273 74.711 42.8563 71.939 53.7313H50.879C56.758 42.3073 52.264 28.2783 40.838 22.3973C31.912 17.8033 21.047 19.4543 13.887 26.4873L0 12.3503C5.301 7.14134 11.859 3.39534 19.035 1.46934L24.836 9.69034L26.172 0.188341C40.93 -1.19466 55.36 5.10634 64.381 16.8683L59.992 23.3373L67.533 21.5983Z" fill="#1A1C58"/>
</svg>
